<svg version="1.1" id="Layer_1" xmlns="http://www.w3.org/2000/svg" x="0" y="0" viewBox="0 0 852.46 296.75" xml:space="preserve">
  <title>VoteAmerica</title>
  <desc>Logo</desc>
  <path class="st1" fill="#ffffff" d="M235.09 1.14c.76.76 1.14 1.76 1.14 3 0 .83-.07 1.45-.21 1.86l-47.99 142.32c-.97 3.45-3.52 5.17-7.65 5.17h-33.51c-4.14 0-6.69-1.72-7.65-5.17L91.22 6c-.28-.83-.41-1.45-.41-1.86 0-1.24.41-2.24 1.24-3C92.88.38 93.91 0 95.15 0h39.92c2.62 0 4.34 1.45 5.17 4.34l27.72 90.81c.27.97.62 1.45 1.03 1.45.27 0 .62-.55 1.03-1.65l25.86-90.6c.27-1.38.93-2.45 1.96-3.21C198.87.38 200.01 0 201.25 0h30.82c1.26 0 2.26.38 3.02 1.14zM254.64 148.32c-8.69-4.83-15.48-11.48-20.38-19.96-4.9-8.48-7.34-18.17-7.34-29.06 0-11.31 2.51-21.31 7.55-29.99 5.03-8.69 11.93-15.44 20.69-20.27 8.76-4.82 18.58-7.24 29.48-7.24 11.31 0 21.34 2.45 30.1 7.35 8.76 4.89 15.55 11.72 20.38 20.48 4.83 8.76 7.24 18.65 7.24 29.68 0 10.76-2.45 20.41-7.34 28.96-4.9 8.55-11.76 15.24-20.58 20.06-8.83 4.83-18.82 7.24-29.99 7.24s-21.12-2.42-29.81-7.25zm42.09-26.58c2.55-4.89 3.83-12.65 3.83-23.27 0-10.89-1.28-18.79-3.83-23.68-2.55-4.89-6.59-7.34-12.1-7.34-5.52 0-9.55 2.48-12.1 7.45-2.55 4.96-3.83 12.83-3.83 23.58 0 10.76 1.27 18.55 3.83 23.38 2.55 4.83 6.58 7.24 12.1 7.24 5.52-.02 9.55-2.47 12.1-7.36zM408.34 71.78c-1.79 0-2.69.9-2.69 2.69v39.72c0 3.72 1.17 6.48 3.52 8.28 2.34 1.79 6 2.69 10.96 2.69h8.89c1.1 0 2 .41 2.69 1.24.69.83 1.03 1.79 1.03 2.9l-.21 16.55c0 3.31-2 5.38-6 6.2-7.03.97-16.34 1.45-27.93 1.45-10.21 0-18.48-2.41-24.82-7.24s-9.52-11.59-9.52-20.27V75.5c0-1.38-.21-2.34-.62-2.9-.41-.55-1.24-.83-2.48-.83h-9.93c-3.31 0-4.97-1.52-4.97-4.55V47.78c0-2.62 1.52-3.93 4.55-3.93h12.2c1.52 0 2.34-.83 2.48-2.48l3.31-30.61c.27-2.76 1.52-4.14 3.72-4.14h30.41c1.1 0 2.03.41 2.79 1.24.76.83 1.14 1.93 1.14 3.31v30.2c0 1.52.76 2.28 2.28 2.28h19.03c3.03 0 4.55 1.31 4.55 3.93v19.65c0 1.38-.45 2.48-1.34 3.31-.9.83-2.17 1.24-3.83 1.24h-19.21zM486.84 123.49c3.93 3.17 9.07 4.76 15.41 4.76 3.72 0 7.31-.86 10.76-2.59 3.45-1.72 7.38-4.72 11.79-9 .55-.55 1.1-.83 1.65-.83.55 0 1.45.21 2.69.62l18.83 7.66c1.24.41 1.86 1.24 1.86 2.48 0 .83-.35 1.65-1.03 2.48-7.17 10.07-14.65 17-22.44 20.79-7.79 3.79-17.69 5.69-29.68 5.69-10.9 0-20.79-2.34-29.68-7.03s-15.9-11.2-21-19.55c-5.1-8.34-7.65-17.82-7.65-28.44 0-11.44 2.62-21.62 7.86-30.51 5.24-8.9 12.27-15.82 21.1-20.79 8.82-4.97 18.34-7.45 28.55-7.45 10.89 0 20.58 2.35 29.06 7.03 8.48 4.69 15.13 11.48 19.96 20.38 4.83 8.89 7.24 19.48 7.24 31.75 0 1.93-.21 3.24-.62 3.93s-1.45 1.1-3.1 1.24h-64.33c-2.07 0-3.1 1.17-3.1 3.52-.03 6.07 1.94 10.69 5.87 13.86zm21.61-38.68c1.38 0 2.31-.17 2.79-.52.48-.34.72-1.14.72-2.38 0-3.44-1.24-6.96-3.72-10.55-2.48-3.58-6-5.38-10.55-5.38-4.55 0-8.41 1.59-11.58 4.76s-4.69 7.79-4.55 13.86l26.89.21z"/>
  <path d="M1.03 293.54c-.69-.75-1.03-1.83-1.03-3.2 0-.97.21-2.07.62-3.31l50.06-141.08c.69-1.79 1.45-3.03 2.28-3.72.83-.69 2.14-1.03 3.93-1.03h40.75c1.66 0 3.14.52 4.45 1.55s2.31 2.38 3 4.03l49.65 140.87c.27 1.1.41 1.93.41 2.48 0 1.24-.28 2.31-.83 3.21-.55.9-1.38 1.34-2.48 1.34H111.3c-2.35 0-3.86-1.17-4.55-3.52l-8.07-23.79c-.41-.96-.79-1.62-1.14-1.96-.34-.34-1-.52-1.96-.52H51.71c-1.65 0-2.69.76-3.1 2.28l-8.48 24.41c-.83 2.07-2.48 3.1-4.97 3.1H3.72c-1.1 0-2-.38-2.69-1.14zm84.19-63.81c1.52 0 2.28-.69 2.28-2.07 0-.28-.14-.97-.41-2.07l-12.41-35.37c-.28-.69-.69-1.03-1.24-1.03s-.97.35-1.24 1.03l-12.62 35.17c-.28.55-.41 1.24-.41 2.07 0 1.52.83 2.28 2.48 2.28h23.57zM169.83 293.54c-.83-.76-1.24-2.1-1.24-4.03V189.8c0-1.38.38-2.51 1.14-3.41.76-.89 1.69-1.34 2.79-1.34h33.1c2.48 0 3.72 1.38 3.72 4.14v9.31c0 1.11.34 1.65 1.04 1.65.55 0 1.1-.28 1.65-.83 4.69-5.1 9.86-9.13 15.51-12.1 5.65-2.96 11.51-4.45 17.58-4.45 7.03 0 13.1 1.73 18.2 5.17 5.1 3.45 8.82 8.35 11.17 14.69.27.55.62.83 1.03.83.27 0 .76-.34 1.45-1.03 3.86-5.38 9.27-9.96 16.24-13.76 6.96-3.79 13.48-5.69 19.55-5.69 9.52 0 17.2 3.04 23.06 9.1 5.86 6.07 8.79 14.55 8.79 25.44v70.95c0 4.14-2.14 6.2-6.41 6.2H308c-1.79 0-3.03-.38-3.72-1.14-.69-.76-1.03-2.1-1.03-4.03v-67.44c0-3.03-.97-5.45-2.9-7.24s-4.55-2.69-7.86-2.69c-2.48 0-4.97.76-7.45 2.28a20.95 20.95 0 00-6.21 5.79c-1.11 1.52-1.65 3.38-1.65 5.58v62.68c0 4.14-2.07 6.2-6.21 6.2h-30.2c-1.65 0-2.86-.38-3.62-1.14-.76-.76-1.14-2.1-1.14-4.03v-67.44c0-3.03-.97-5.45-2.9-7.24s-4.55-2.69-7.86-2.69c-6.34 0-11.45 3.45-15.31 10.34v66.2c0 2.21-.52 3.76-1.55 4.65-1.03.9-2.79 1.34-5.27 1.34h-29.17c-1.92.03-3.29-.35-4.12-1.11zM404.92 264.68c3.93 3.17 9.07 4.76 15.41 4.76 3.72 0 7.31-.86 10.76-2.59 3.45-1.72 7.38-4.72 11.79-9 .55-.55 1.1-.83 1.65-.83.55 0 1.45.21 2.69.62l18.83 7.65c1.24.41 1.86 1.24 1.86 2.48 0 .83-.35 1.65-1.03 2.48-7.17 10.07-14.65 17-22.44 20.79-7.79 3.79-17.69 5.69-29.68 5.69-10.9 0-20.79-2.34-29.68-7.03s-15.9-11.2-21-19.55c-5.1-8.34-7.65-17.82-7.65-28.44 0-11.44 2.62-21.62 7.86-30.51 5.24-8.9 12.27-15.82 21.1-20.79 8.82-4.97 18.34-7.45 28.55-7.45 10.89 0 20.58 2.35 29.06 7.03 8.48 4.69 15.13 11.48 19.96 20.38 4.83 8.89 7.24 19.48 7.24 31.75 0 1.93-.21 3.24-.62 3.93-.41.69-1.45 1.11-3.1 1.24h-64.33c-2.07 0-3.1 1.17-3.1 3.52-.02 6.09 1.94 10.71 5.87 13.87zM426.54 226c1.38 0 2.31-.17 2.79-.52.48-.34.72-1.14.72-2.38 0-3.44-1.24-6.96-3.72-10.55-2.48-3.58-6-5.38-10.55-5.38-4.55 0-8.41 1.59-11.58 4.76s-4.69 7.79-4.55 13.86l26.89.21zM483.73 293.44c-.76-.83-1.14-2.14-1.14-3.93V189.8c0-3.17 1.31-4.76 3.93-4.76h32.27c1.1 0 2 .38 2.69 1.14.69.76 1.03 1.76 1.03 3v11.59c0 1.24.48 1.86 1.45 1.86.69 0 1.38-.41 2.07-1.24 3.31-5.1 7.93-9.45 13.86-13.03s11.31-5.38 16.14-5.38c5.1 0 7.65 1.38 7.65 4.14v31.44c0 1.38-.38 2.35-1.14 2.9-.76.55-1.76.69-3 .41-5.93-1.51-11.86-2.28-17.79-2.28-4.55 0-8.66 1.45-12.31 4.34-3.66 2.9-5.48 6.14-5.48 9.72v55.02c0 2.21-.55 3.76-1.65 4.65-1.1.9-2.83 1.34-5.17 1.34h-29.17c-2.07.02-3.48-.39-4.24-1.22zM617.88 169.94c0 2.07-.55 3.59-1.65 4.55-1.1.97-2.83 1.45-5.17 1.45h-29.17c-1.93 0-3.31-.45-4.14-1.34-.83-.9-1.24-2.24-1.24-4.04v-24.62c0-3.17 1.31-4.76 3.93-4.76h33.72c1.1 0 2 .38 2.69 1.14.69.76 1.03 1.83 1.03 3.21v24.41zm0 118.74c0 2.21-.55 3.76-1.65 4.65-1.1.9-2.83 1.34-5.17 1.34h-29.17c-2.07 0-3.48-.41-4.24-1.24-.76-.83-1.14-2.14-1.14-3.93v-99.7c0-3.17 1.31-4.76 3.93-4.76h33.72c1.1 0 2 .38 2.69 1.14.69.76 1.03 1.76 1.03 3v99.5zM712.41 188.25c7.03 3.52 12.62 7.97 16.76 13.34 4.14 5.38 6.83 10.9 8.07 16.55.28 1.11.41 1.8.41 2.07 0 1.93-1.38 3.04-4.14 3.31l-28.34 1.45h-.62c-.97 0-1.62-.21-1.96-.62-.34-.41-.65-1.17-.93-2.28-.55-3.72-1.69-6.83-3.41-9.31-1.73-2.48-4.79-3.72-9.21-3.72-11.03 0-16.55 10.27-16.55 30.82 0 11.03 1.58 19 4.76 23.89 3.17 4.9 7.86 7.35 14.07 7.35 3.58 0 6.58-.65 9-1.96 2.41-1.31 4.38-3.03 5.89-5.17 1.52-2.13 3.38-5.2 5.59-9.2.41-.83 1.24-1.24 2.48-1.24.69 0 1.24.07 1.65.21l19.44 3.72c1.52.14 2.28.97 2.28 2.48 0 .14-.14.9-.41 2.28-.83 4.42-3.1 9.31-6.83 14.69s-9.17 10.03-16.34 13.96c-7.17 3.93-15.86 5.89-26.07 5.89-10.9 0-20.72-2.38-29.48-7.14-8.76-4.76-15.59-11.41-20.48-19.96-4.9-8.55-7.34-18.34-7.34-29.37 0-11.17 2.48-21.1 7.45-29.79 4.97-8.69 11.79-15.44 20.48-20.27 8.69-4.82 18.48-7.24 29.37-7.24 9.24-.01 17.38 1.74 24.41 5.26zM778.19 296.75c-10.07 0-18.1-2.82-24.1-8.48-6-5.65-9-12.89-9-21.72 0-7.99 2.59-15.06 7.76-21.2 5.17-6.13 12.55-10.89 22.13-14.27 9.58-3.38 20.79-5.07 33.62-5.07h1.45c2.07 0 3.1-.96 3.1-2.9v-3.52c0-8-4.07-12-12.21-12-3.31 0-6.41.76-9.31 2.28-2.9 1.52-5.17 4-6.83 7.45-.41.97-.86 1.62-1.35 1.96-.48.34-1.14.52-1.96.52-.97 0-1.73-.07-2.28-.21l-27.1-5.38c-1.52-.28-2.28-1.17-2.28-2.69 0-.97.28-2.28.83-3.93 5.79-16.41 23.17-24.62 52.13-24.62 18.07 0 30.85 2.97 38.37 8.9 7.52 5.93 11.27 14.34 11.27 25.24v71.99c0 2.07-.31 3.52-.93 4.34s-1.9 1.24-3.83 1.24h-28.34c-1.65 0-2.86-.62-3.62-1.86-.76-1.24-1.34-3.03-1.76-5.38l-.21-1.45c-.14-1.38-.69-2.07-1.65-2.07-1.11 0-2.42.69-3.93 2.07-8.52 7.17-18.52 10.76-29.97 10.76zm34.34-51.3c-.41-.55-1.24-.83-2.48-.83h-.83c-2.62 0-5.83.62-9.62 1.86-3.79 1.24-7.14 3.07-10.03 5.48-2.9 2.41-4.35 5.41-4.35 9 0 2.9 1.03 5.24 3.11 7.03 2.07 1.79 4.96 2.69 8.69 2.69 4.41 0 8.2-1.31 11.38-3.93 3.17-2.62 4.76-5.1 4.76-7.45v-10.96c-.01-1.37-.21-2.34-.63-2.89z"/>
</svg>