<?xml version="1.0" encoding="UTF-8"?>
<svg width="477px" height="478px" viewBox="0 0 477 478" version="1.1" xmlns="http://www.w3.org/2000/svg" xmlns:xlink="http://www.w3.org/1999/xlink">
    <!-- Generator: Sketch 53.2 (72643) - https://sketchapp.com -->
    <title>Square</title>
    <desc>Created with Sketch.</desc>
    <g id="Page-1" stroke="none" stroke-width="1" fill="none" fill-rule="evenodd">
        <g id="Square" transform="translate(0.000000, 0.500000)">
            <rect id="Rectangle-Copy-7" fill="#004680" x="0" y="0" width="477" height="477"></rect>
            <text id="TURNOUT-Copy-5" font-family="JosefinSans-Bold, Josefin Sans" font-size="74" font-weight="bold" fill="#FFFFFF">
                <tspan x="52" y="194">TURNOUT</tspan>
            </text>
            <path d="M133,313.466468 L133,336 L56.0768942,336 L64.7488101,327.308495 C74.8125653,317.0074 82.6011526,308.745188 88.1148057,302.52161 C93.6284588,296.298031 98.2320224,289.994071 101.925635,283.609538 C105.619247,277.225005 107.466025,271.135647 107.466025,265.341282 C107.466025,260.834553 105.967191,257.239954 102.969476,254.557377 C99.9717621,251.8748 96.0105562,250.533532 91.0857399,250.533532 C86.3750459,250.533532 82.6279593,251.767499 79.8443674,254.235469 C77.0607755,256.70344 75.6690005,259.493278 75.6690005,262.605067 C75.6690005,262.959389 68.9538945,262.940583 62.7792345,262.923054 C57.7343177,262.908732 53,262.947701 53,262.756632 C53,256.747661 54.6850887,251.526108 58.0039866,246.107303 C61.3228846,240.688497 66.1673324,236.315963 72.5374753,232.989568 C78.9076182,229.663173 86.4285565,228 95.1005157,228 C102.166557,228 108.483074,229.636347 114.050258,232.909091 C119.617442,236.181835 123.953356,240.554369 127.058132,246.026826 C130.162907,251.499282 131.715272,257.293561 131.715272,263.409836 C131.715272,269.096899 130.617911,274.676575 128.423156,280.149031 C126.2284,285.621488 123.44485,290.798783 120.072422,295.681073 C116.699993,300.563363 112.230254,306.491768 106.66307,313.466468 L133,313.466468 Z" id="2" fill="#FFFFFF" fill-rule="nonzero"></path>
            <path d="M191,335.995657 C182.505334,336.102792 174.871002,334.147608 168.096774,330.130048 C161.322547,326.112487 155.946256,320.059454 151.967742,311.970766 C147.989227,303.882078 146,293.891894 146,281.999915 C146,245.788305 160.99985,227.789904 191,228.004174 C199.494666,227.897039 207.128998,229.852223 213.903226,233.869783 C220.677453,237.887343 226.053744,243.940377 230.032258,252.029065 C234.010773,260.117753 236,270.107937 236,281.999915 C236,294.213299 234.010773,304.364182 230.032258,312.452871 C226.053744,320.541559 220.677453,326.514242 213.903226,330.3711 C207.128998,334.227958 199.494666,336.102792 191,335.995657 Z M190.83871,313.658133 C198.365629,313.658133 203.715038,310.765533 206.887097,304.980246 C210.059156,299.194959 211.645161,291.320659 211.645161,281.357109 C211.645161,260.7872 204.709747,250.5024 190.83871,250.5024 C183.419318,250.5024 178.150553,253.287866 175.032258,258.858883 C171.913963,264.4299 170.354839,272.089934 170.354839,281.839214 C170.354839,291.695629 171.913963,299.462795 175.032258,305.140947 C178.150553,310.819099 183.419318,313.658133 190.83871,313.658133 Z" id="0" fill="#FFFFFF" fill-rule="nonzero"></path>
            <path d="M387,335.995657 C378.505334,336.102792 370.871002,334.147608 364.096774,330.130048 C357.322547,326.112487 351.946256,320.059454 347.967742,311.970766 C343.989227,303.882078 342,293.891894 342,281.999915 C342,245.788305 356.99985,227.789904 387,228.004174 C395.494666,227.897039 403.128998,229.852223 409.903226,233.869783 C416.677453,237.887343 422.053744,243.940377 426.032258,252.029065 C430.010773,260.117753 432,270.107937 432,281.999915 C432,294.213299 430.010773,304.364182 426.032258,312.452871 C422.053744,320.541559 416.677453,326.514242 409.903226,330.3711 C403.128998,334.227958 395.494666,336.102792 387,335.995657 Z M386.83871,313.658133 C394.365629,313.658133 399.715038,310.765533 402.887097,304.980246 C406.059156,299.194959 407.645161,291.320659 407.645161,281.357109 C407.645161,260.7872 400.709747,250.5024 386.83871,250.5024 C379.419318,250.5024 374.150553,253.287866 371.032258,258.858883 C367.913963,264.4299 366.354839,272.089934 366.354839,281.839214 C366.354839,291.695629 367.913963,299.462795 371.032258,305.140947 C374.150553,310.819099 379.419318,313.658133 386.83871,313.658133 Z" id="0" fill="#FFFFFF" fill-rule="nonzero"></path>
            <path d="M330.141593,313.466468 L330.141593,336 L252.946193,336 L261.648806,327.308495 C271.748185,317.0074 279.564343,308.745188 285.097513,302.52161 C290.630683,296.298031 295.250543,289.994071 298.95723,283.609538 C302.663917,277.225005 304.517233,271.135647 304.517233,265.341282 C304.517233,260.834553 303.013092,257.239954 300.004767,254.557377 C296.996441,251.8748 293.021213,250.533532 288.078964,250.533532 C283.351595,250.533532 279.591244,251.767499 276.797799,254.235469 C274.004354,256.70344 272.607652,259.493278 272.607652,262.605067 C272.607652,262.959389 265.868775,262.940583 259.672258,262.923054 C254.609483,262.908732 249.858407,262.947701 249.858407,262.756632 C249.858407,256.747661 251.549461,251.526108 254.880107,246.107303 C258.210753,240.688497 263.07235,236.315963 269.465042,232.989568 C275.857734,229.663173 283.405295,228 292.107951,228 C299.199005,228 305.537881,229.636347 311.124772,232.909091 C316.711663,236.181835 321.062926,240.554369 324.178691,246.026826 C327.294457,251.499282 328.852317,257.293561 328.852317,263.409836 C328.852317,269.096899 327.751071,274.676575 325.548547,280.149031 C323.346023,285.621488 320.55262,290.798783 317.168253,295.681073 C313.783887,300.563363 309.298326,306.491768 303.711435,313.466468 L330.141593,313.466468 Z" id="2-copy" fill="#FFFFFF" fill-rule="nonzero"></path>
        </g>
    </g>
</svg>